# xmcd CD database file
#
# Track frame offsets:
#	150
#	13992
#	28832
#	44262
#	61815
#	79732
#	97737
#	111412
#	126657
#	140557
#	162595
#	177365
#
# Disc length: 2614 seconds
#
# Revision: 2
# Processed by: cddbd v1.5.1PL2 Copyright (c) Steve Scherf et al.
# Submitted via: CDex 1.51
#
DISCID=a90a340c
DTITLE=The Delevantes - Postcards From Along The Way  [CD)
DYEAR=1997
DGENRE=Country
TTITLE0=Suitcase Of Leather
TTITLE1=My Daddy's Cadillac
TTITLE2=This Engine Runs On Faith
TTITLE3=I Know I Promised
TTITLE4=Reminds Me Of You
TTITLE5=Heart Shaped Locket
TTITLE6=I'm Your Man
TTITLE7=If I Was (I Would Be Love)
TTITLE8=Hi-Lo
TTITLE9=Blame It On The Horizon Line
TTITLE10=Right About Now
TTITLE11=John Wayne Lives In Hoboken
EXTD=YEAR: 1997
EXTT0=
EXTT1=
EXTT2=
EXTT3=
EXTT4=
EXTT5=
EXTT6=
EXTT7=
EXTT8=
EXTT9=
EXTT10=
EXTT11=
PLAYORDER=
